<svg width="1600" height="780" viewBox="0 0 1600 780" fill="none" xmlns="http://www.w3.org/2000/svg">
  <g opacity="0.95" filter="url(#softGlow)">
    <path d="M118 394C250 338 410 242 568 223C684 208 741 259 790 259C839 259 896 208 1012 223C1170 242 1330 338 1462 394" stroke="url(#goldStroke)" stroke-width="18" stroke-linecap="round" stroke-linejoin="round"/>
    <path d="M132 394C253 434 405 515 575 538C681 552 744 488 790 488C836 488 899 552 1005 538C1175 515 1327 434 1448 394" stroke="url(#goldStroke)" stroke-width="18" stroke-linecap="round" stroke-linejoin="round"/>
  </g>

  <g opacity="0.78" filter="url(#innerGlow)">
    <path d="M210 394C325 369 510 339 668 362C739 373 767 406 790 406C813 406 841 373 912 362C1070 339 1255 369 1370 394" stroke="url(#goldStrokeSoft)" stroke-width="12" stroke-linecap="round" stroke-linejoin="round"/>
    <path d="M248 450C342 408 531 386 681 411C739 421 765 447 790 447C815 447 841 421 899 411C1049 386 1238 408 1332 450" stroke="url(#goldStrokeSoft)" stroke-width="9" stroke-linecap="round" stroke-linejoin="round" opacity="0.92"/>
  </g>

  <path d="M270 419C354 386 528 369 681 389C741 397 768 422 790 422C812 422 839 397 899 389C1052 369 1226 386 1310 419" stroke="url(#goldHighlight)" stroke-width="5" stroke-linecap="round" opacity="0.7"/>

  <defs>
    <linearGradient id="goldStroke" x1="118" y1="223" x2="1462" y2="538" gradientUnits="userSpaceOnUse">
      <stop stop-color="#5B430F"/>
      <stop offset="0.25" stop-color="#B88724"/>
      <stop offset="0.5" stop-color="#F8E8B2"/>
      <stop offset="0.75" stop-color="#BD8C26"/>
      <stop offset="1" stop-color="#4C3608"/>
    </linearGradient>
    <linearGradient id="goldStrokeSoft" x1="210" y1="362" x2="1370" y2="450" gradientUnits="userSpaceOnUse">
      <stop stop-color="#775718"/>
      <stop offset="0.5" stop-color="#EDCF79"/>
      <stop offset="1" stop-color="#6A4D10"/>
    </linearGradient>
    <linearGradient id="goldHighlight" x1="270" y1="392" x2="1310" y2="421" gradientUnits="userSpaceOnUse">
      <stop stop-color="#D7AF4C" stop-opacity="0.2"/>
      <stop offset="0.5" stop-color="#FFF0C8"/>
      <stop offset="1" stop-color="#D7AF4C" stop-opacity="0.2"/>
    </linearGradient>

    <filter id="softGlow" x="48" y="149" width="1484" height="461" filterUnits="userSpaceOnUse" color-interpolation-filters="sRGB">
      <feGaussianBlur stdDeviation="4.5" result="blur"/>
      <feMerge>
        <feMergeNode in="blur"/>
        <feMergeNode in="SourceGraphic"/>
      </feMerge>
    </filter>
    <filter id="innerGlow" x="170" y="326" width="1240" height="161" filterUnits="userSpaceOnUse" color-interpolation-filters="sRGB">
      <feGaussianBlur stdDeviation="2.2" result="blurInner"/>
      <feMerge>
        <feMergeNode in="blurInner"/>
        <feMergeNode in="SourceGraphic"/>
      </feMerge>
    </filter>
  </defs>
</svg>
