<svg width="1600" height="780" viewBox="0 0 1600 780" fill="none" xmlns="http://www.w3.org/2000/svg">
  <rect width="1600" height="780" fill="#050505"/>
  <g opacity="0.95" filter="url(#softGlow)">
    <path d="M108 392C240 345 403 247 565 227C689 211 742 261 790 261C838 261 891 211 1015 227C1177 247 1340 345 1472 392" stroke="url(#goldStroke)" stroke-width="18" stroke-linecap="round" stroke-linejoin="round"/>
    <path d="M122 392C241 430 398 513 573 538C680 553 744 489 790 489C836 489 900 553 1007 538C1182 513 1339 430 1458 392" stroke="url(#goldStroke)" stroke-width="18" stroke-linecap="round" stroke-linejoin="round"/>
  </g>
  <g opacity="0.7" filter="url(#innerGlow)">
    <path d="M202 392C318 371 508 339 668 363C741 374 768 405 790 405C812 405 839 374 912 363C1072 339 1262 371 1378 392" stroke="url(#goldStrokeSoft)" stroke-width="12" stroke-linecap="round" stroke-linejoin="round"/>
    <path d="M248 451C343 407 531 384 681 411C739 422 765 447 790 447C815 447 841 422 899 411C1049 384 1237 407 1332 451" stroke="url(#goldStrokeSoft)" stroke-width="9" stroke-linecap="round" stroke-linejoin="round" opacity="0.8"/>
  </g>
  <defs>
    <linearGradient id="goldStroke" x1="108" y1="227" x2="1472" y2="538" gradientUnits="userSpaceOnUse">
      <stop stop-color="#5C4612"/>
      <stop offset="0.28" stop-color="#C69A2B"/>
      <stop offset="0.52" stop-color="#F3E1A5"/>
      <stop offset="0.74" stop-color="#C79C30"/>
      <stop offset="1" stop-color="#4A350A"/>
    </linearGradient>
    <linearGradient id="goldStrokeSoft" x1="202" y1="363" x2="1378" y2="451" gradientUnits="userSpaceOnUse">
      <stop stop-color="#7C5E19"/>
      <stop offset="0.5" stop-color="#E3C367"/>
      <stop offset="1" stop-color="#6E5113"/>
    </linearGradient>
    <filter id="softGlow" x="34" y="153" width="1512" height="459" filterUnits="userSpaceOnUse" color-interpolation-filters="sRGB">
      <feGaussianBlur stdDeviation="4" result="blur"/>
      <feMerge>
        <feMergeNode in="blur"/>
        <feMergeNode in="SourceGraphic"/>
      </feMerge>
    </filter>
    <filter id="innerGlow" x="166" y="327" width="1248" height="160" filterUnits="userSpaceOnUse" color-interpolation-filters="sRGB">
      <feGaussianBlur stdDeviation="2" result="blurInner"/>
      <feMerge>
        <feMergeNode in="blurInner"/>
        <feMergeNode in="SourceGraphic"/>
      </feMerge>
    </filter>
  </defs>
</svg>
