<svg width="64" height="64" viewBox="0 0 64 64" fill="none" xmlns="http://www.w3.org/2000/svg">
  <rect width="64" height="64" rx="8" fill="#050505"/>
  <g filter="url(#outerGlow)">
    <path d="M7 33C14.2 27.8 22.9 22.2 31.7 21.1C38 20.3 40.8 22.8 43.2 22.8C45.8 22.8 48.7 20.2 54.9 21.1C63.7 22.4 72.4 27.7 79 33" stroke="url(#goldMain)" stroke-width="2.9" stroke-linecap="round" stroke-linejoin="round" transform="translate(-11 0)"/>
    <path d="M8.2 33C14.9 36.9 24.1 42.8 33.4 43.7C39.1 44.2 41.8 41.6 44.2 41.6C46.5 41.6 49.4 44.2 55.1 43.7C64.4 42.8 73.6 37 80.3 33" stroke="url(#goldMain)" stroke-width="2.9" stroke-linecap="round" stroke-linejoin="round" transform="translate(-12 0)"/>
    <path d="M13.8 33C20.2 31 27.7 29.8 34 30.8C37.8 31.5 40.2 33.6 42 33.6C43.8 33.6 46.2 31.5 50 30.8C56.3 29.8 63.8 31 70.2 33" stroke="url(#goldSoft)" stroke-width="2.1" stroke-linecap="round" stroke-linejoin="round" transform="translate(-10 0)"/>
    <path d="M17.2 37.7C21.8 36 27.5 35.2 33.1 36C36.6 36.5 39.2 38 42 38C44.8 38 47.4 36.5 50.9 36C56.5 35.2 62.2 36 66.8 37.7" stroke="url(#goldAccent)" stroke-width="1.6" stroke-linecap="round" stroke-linejoin="round" transform="translate(-10 0)" opacity="0.9"/>
  </g>
  <defs>
    <linearGradient id="goldMain" x1="8" y1="22" x2="74" y2="44" gradientUnits="userSpaceOnUse">
      <stop stop-color="#6B4F13"/>
      <stop offset="0.28" stop-color="#C6942A"/>
      <stop offset="0.52" stop-color="#F5E1A5"/>
      <stop offset="0.76" stop-color="#BF8D25"/>
      <stop offset="1" stop-color="#5C430B"/>
    </linearGradient>
    <linearGradient id="goldSoft" x1="14" y1="30" x2="69" y2="35" gradientUnits="userSpaceOnUse">
      <stop stop-color="#8B6A1D"/>
      <stop offset="0.5" stop-color="#ECCD74"/>
      <stop offset="1" stop-color="#7A5A15"/>
    </linearGradient>
    <linearGradient id="goldAccent" x1="17" y1="35" x2="67" y2="39" gradientUnits="userSpaceOnUse">
      <stop stop-color="#C59734" stop-opacity="0.3"/>
      <stop offset="0.5" stop-color="#FFE6A5"/>
      <stop offset="1" stop-color="#C59734" stop-opacity="0.3"/>
    </linearGradient>
    <filter id="outerGlow" x="0" y="12" width="64" height="40" filterUnits="userSpaceOnUse" color-interpolation-filters="sRGB">
      <feGaussianBlur stdDeviation="1.2" result="blur"/>
      <feMerge>
        <feMergeNode in="blur"/>
        <feMergeNode in="SourceGraphic"/>
      </feMerge>
    </filter>
  </defs>
</svg>
